<svg xmlns="http://www.w3.org/2000/svg" xmlns:xlink="http://www.w3.org/1999/xlink" width="500" zoomAndPan="magnify" viewBox="0 0 375 374.999991" height="500" preserveAspectRatio="xMidYMid meet" version="1.0"><defs><clipPath id="d69444c4c0"><path d="M 187.5 187.5 L 365.097656 187.5 L 365.097656 365.097656 L 187.5 365.097656 Z M 187.5 187.5 " clip-rule="nonzero"/></clipPath><clipPath id="895c5ccf5f"><path d="M 204.75 187.5 L 347.847656 187.5 C 352.421875 187.5 356.808594 189.316406 360.042969 192.550781 C 363.277344 195.789062 365.097656 200.175781 365.097656 204.75 L 365.097656 347.847656 C 365.097656 352.421875 363.277344 356.808594 360.042969 360.042969 C 356.808594 363.277344 352.421875 365.097656 347.847656 365.097656 L 204.75 365.097656 C 200.175781 365.097656 195.789062 363.277344 192.550781 360.042969 C 189.316406 356.808594 187.5 352.421875 187.5 347.847656 L 187.5 204.75 C 187.5 200.175781 189.316406 195.789062 192.550781 192.550781 C 195.789062 189.316406 200.175781 187.5 204.75 187.5 Z M 204.75 187.5 " clip-rule="nonzero"/></clipPath><clipPath id="8af6424ad5"><path d="M 0.5 0.5 L 178.097656 0.5 L 178.097656 178.097656 L 0.5 178.097656 Z M 0.5 0.5 " clip-rule="nonzero"/></clipPath><clipPath id="1d919c44d8"><path d="M 17.75 0.5 L 160.847656 0.5 C 165.421875 0.5 169.808594 2.316406 173.042969 5.550781 C 176.277344 8.789062 178.097656 13.175781 178.097656 17.75 L 178.097656 160.847656 C 178.097656 165.421875 176.277344 169.808594 173.042969 173.042969 C 169.808594 176.277344 165.421875 178.097656 160.847656 178.097656 L 17.75 178.097656 C 13.175781 178.097656 8.789062 176.277344 5.550781 173.042969 C 2.316406 169.808594 0.5 165.421875 0.5 160.847656 L 0.5 17.75 C 0.5 13.175781 2.316406 8.789062 5.550781 5.550781 C 8.789062 2.316406 13.175781 0.5 17.75 0.5 Z M 17.75 0.5 " clip-rule="nonzero"/></clipPath><clipPath id="955b9ce8a9"><rect x="0" width="179" y="0" height="179"/></clipPath><clipPath id="00f180cb42"><path d="M 187.5 187.5 L 365.25 187.5 L 365.25 365.25 L 187.5 365.25 Z M 187.5 187.5 " clip-rule="nonzero"/></clipPath><clipPath id="ec08ba789f"><path d="M 204.75 187.5 L 347.835938 187.5 C 352.410156 187.5 356.800781 189.316406 360.035156 192.550781 C 363.269531 195.785156 365.085938 200.175781 365.085938 204.75 L 365.085938 347.835938 C 365.085938 352.410156 363.269531 356.800781 360.035156 360.035156 C 356.800781 363.269531 352.410156 365.085938 347.835938 365.085938 L 204.75 365.085938 C 200.175781 365.085938 195.785156 363.269531 192.550781 360.035156 C 189.316406 356.800781 187.5 352.410156 187.5 347.835938 L 187.5 204.75 C 187.5 200.175781 189.316406 195.785156 192.550781 192.550781 C 195.785156 189.316406 200.175781 187.5 204.75 187.5 Z M 204.75 187.5 " clip-rule="nonzero"/></clipPath><clipPath id="724ed31fbe"><path d="M 9.902344 9.902344 L 187.5 9.902344 L 187.5 187.5 L 9.902344 187.5 Z M 9.902344 9.902344 " clip-rule="nonzero"/></clipPath><clipPath id="4e01b055cf"><path d="M 27.152344 9.902344 L 170.25 9.902344 C 174.824219 9.902344 179.210938 11.722656 182.449219 14.957031 C 185.683594 18.191406 187.5 22.578125 187.5 27.152344 L 187.5 170.25 C 187.5 174.824219 185.683594 179.210938 182.449219 182.449219 C 179.210938 185.683594 174.824219 187.5 170.25 187.5 L 27.152344 187.5 C 22.578125 187.5 18.191406 185.683594 14.957031 182.449219 C 11.722656 179.210938 9.902344 174.824219 9.902344 170.25 L 9.902344 27.152344 C 9.902344 22.578125 11.722656 18.191406 14.957031 14.957031 C 18.191406 11.722656 22.578125 9.902344 27.152344 9.902344 Z M 27.152344 9.902344 " clip-rule="nonzero"/></clipPath><clipPath id="af39a51b70"><path d="M 0.902344 0.902344 L 178.5 0.902344 L 178.5 178.5 L 0.902344 178.5 Z M 0.902344 0.902344 " clip-rule="nonzero"/></clipPath><clipPath id="259bb1d0e3"><path d="M 18.152344 0.902344 L 161.25 0.902344 C 165.824219 0.902344 170.210938 2.722656 173.449219 5.957031 C 176.683594 9.191406 178.5 13.578125 178.5 18.152344 L 178.5 161.25 C 178.5 165.824219 176.683594 170.210938 173.449219 173.449219 C 170.210938 176.683594 165.824219 178.5 161.25 178.5 L 18.152344 178.5 C 13.578125 178.5 9.191406 176.683594 5.957031 173.449219 C 2.722656 170.210938 0.902344 165.824219 0.902344 161.25 L 0.902344 18.152344 C 0.902344 13.578125 2.722656 9.191406 5.957031 5.957031 C 9.191406 2.722656 13.578125 0.902344 18.152344 0.902344 Z M 18.152344 0.902344 " clip-rule="nonzero"/></clipPath><clipPath id="e3b22f02d2"><rect x="0" width="179" y="0" height="179"/></clipPath><clipPath id="075bf80fab"><path d="M 9.902344 9.902344 L 187.652344 9.902344 L 187.652344 187.652344 L 9.902344 187.652344 Z M 9.902344 9.902344 " clip-rule="nonzero"/></clipPath><clipPath id="1f133427b5"><path d="M 27.152344 9.902344 L 170.242188 9.902344 C 174.816406 9.902344 179.203125 11.722656 182.4375 14.957031 C 185.671875 18.191406 187.488281 22.578125 187.488281 27.152344 L 187.488281 170.242188 C 187.488281 174.816406 185.671875 179.203125 182.4375 182.4375 C 179.203125 185.671875 174.816406 187.488281 170.242188 187.488281 L 27.152344 187.488281 C 22.578125 187.488281 18.191406 185.671875 14.957031 182.4375 C 11.722656 179.203125 9.902344 174.816406 9.902344 170.242188 L 9.902344 27.152344 C 9.902344 22.578125 11.722656 18.191406 14.957031 14.957031 C 18.191406 11.722656 22.578125 9.902344 27.152344 9.902344 Z M 27.152344 9.902344 " clip-rule="nonzero"/></clipPath></defs><rect x="-37.5" width="450" fill="#ffffff" y="-37.499999" height="449.999989" fill-opacity="1"/><rect x="-37.5" width="450" fill="#000000" y="-37.499999" height="449.999989" fill-opacity="1"/><g clip-path="url(#d69444c4c0)"><g clip-path="url(#895c5ccf5f)"><g transform="matrix(1, 0, 0, 1, 187, 187)"><g clip-path="url(#955b9ce8a9)"><g clip-path="url(#8af6424ad5)"><g clip-path="url(#1d919c44d8)"><path fill="#ffffff" d="M 0.5 0.5 L 178.097656 0.5 L 178.097656 178.097656 L 0.5 178.097656 Z M 0.5 0.5 " fill-opacity="1" fill-rule="nonzero"/></g></g></g></g></g></g><g clip-path="url(#00f180cb42)"><g clip-path="url(#ec08ba789f)"><path stroke-linecap="butt" transform="matrix(0.75, 0, 0, 0.75, 187.499992, 187.499988)" fill="none" stroke-linejoin="miter" d="M 23.000012 0.0000164167 L 213.781274 0.0000164167 C 219.880233 0.0000164167 225.7344 2.421892 230.046901 6.734392 C 234.359401 11.046892 236.781276 16.901059 236.781276 23.000018 L 236.781276 213.78128 C 236.781276 219.880239 234.359401 225.734406 230.046901 230.046907 C 225.7344 234.359407 219.880233 236.781282 213.781274 236.781282 L 23.000012 236.781282 C 16.901053 236.781282 11.046886 234.359407 6.734386 230.046907 C 2.421886 225.734406 0.0000104167 219.880239 0.0000104167 213.78128 L 0.0000104167 23.000018 C 0.0000104167 16.901059 2.421886 11.046892 6.734386 6.734392 C 11.046886 2.421892 16.901053 0.0000164167 23.000012 0.0000164167 Z M 23.000012 0.0000164167 " stroke="#ffffff" stroke-width="30" stroke-opacity="1" stroke-miterlimit="4"/></g></g><g clip-path="url(#724ed31fbe)"><g clip-path="url(#4e01b055cf)"><g transform="matrix(1, 0, 0, 1, 9, 9)"><g clip-path="url(#e3b22f02d2)"><g clip-path="url(#af39a51b70)"><g clip-path="url(#259bb1d0e3)"><path fill="#ffffff" d="M 0.902344 0.902344 L 178.5 0.902344 L 178.5 178.5 L 0.902344 178.5 Z M 0.902344 0.902344 " fill-opacity="1" fill-rule="nonzero"/></g></g></g></g></g></g><g clip-path="url(#075bf80fab)"><g clip-path="url(#1f133427b5)"><path stroke-linecap="butt" transform="matrix(0.75, 0, 0, 0.75, 9.903565, 9.903561)" fill="none" stroke-linejoin="miter" d="M 22.998373 -0.00162261 L 213.784844 -0.00162261 C 219.883802 -0.00162261 225.732761 2.425461 230.045261 6.737961 C 234.357762 11.050461 236.779637 16.89942 236.779637 22.998379 L 236.779637 213.78485 C 236.779637 219.883808 234.357762 225.732767 230.045261 230.045267 C 225.732761 234.357768 219.883802 236.779643 213.784844 236.779643 L 22.998373 236.779643 C 16.899414 236.779643 11.050455 234.357768 6.737955 230.045267 C 2.425455 225.732767 -0.00162861 219.883808 -0.00162861 213.78485 L -0.00162861 22.998379 C -0.00162861 16.89942 2.425455 11.050461 6.737955 6.737961 C 11.050455 2.425461 16.899414 -0.00162261 22.998373 -0.00162261 Z M 22.998373 -0.00162261 " stroke="#ffffff" stroke-width="30" stroke-opacity="1" stroke-miterlimit="4"/></g></g></svg>