<svg xmlns="http://www.w3.org/2000/svg" xmlns:xlink="http://www.w3.org/1999/xlink" width="500" zoomAndPan="magnify" viewBox="0 0 375 374.999991" height="500" preserveAspectRatio="xMidYMid meet" version="1.0"><defs><clipPath id="613bfa85de"><path d="M 8.984375 8.984375 L 366.015625 8.984375 L 366.015625 366.015625 L 8.984375 366.015625 Z M 8.984375 8.984375 " clip-rule="nonzero"/></clipPath><clipPath id="bb1fb4d3cb"><path d="M 26.234375 8.984375 L 348.765625 8.984375 C 358.292969 8.984375 366.015625 16.707031 366.015625 26.234375 L 366.015625 348.765625 C 366.015625 358.292969 358.292969 366.015625 348.765625 366.015625 L 26.234375 366.015625 C 16.707031 366.015625 8.984375 358.292969 8.984375 348.765625 L 8.984375 26.234375 C 8.984375 16.707031 16.707031 8.984375 26.234375 8.984375 Z M 26.234375 8.984375 " clip-rule="nonzero"/></clipPath><clipPath id="3faf61c75a"><path d="M 0.984375 0.984375 L 358.015625 0.984375 L 358.015625 358.015625 L 0.984375 358.015625 Z M 0.984375 0.984375 " clip-rule="nonzero"/></clipPath><clipPath id="0282c5b1ec"><path d="M 18.234375 0.984375 L 340.765625 0.984375 C 350.292969 0.984375 358.015625 8.707031 358.015625 18.234375 L 358.015625 340.765625 C 358.015625 350.292969 350.292969 358.015625 340.765625 358.015625 L 18.234375 358.015625 C 8.707031 358.015625 0.984375 350.292969 0.984375 340.765625 L 0.984375 18.234375 C 0.984375 8.707031 8.707031 0.984375 18.234375 0.984375 Z M 18.234375 0.984375 " clip-rule="nonzero"/></clipPath><clipPath id="a1693b0646"><rect x="0" width="359" y="0" height="359"/></clipPath><clipPath id="3ea65cadbd"><path d="M 8.984375 8.984375 L 365.984375 8.984375 L 365.984375 365.984375 L 8.984375 365.984375 Z M 8.984375 8.984375 " clip-rule="nonzero"/></clipPath><clipPath id="0dd7842e2f"><path d="M 26.234375 8.984375 L 348.757812 8.984375 C 358.285156 8.984375 366.007812 16.707031 366.007812 26.234375 L 366.007812 348.757812 C 366.007812 358.285156 358.285156 366.007812 348.757812 366.007812 L 26.234375 366.007812 C 16.707031 366.007812 8.984375 358.285156 8.984375 348.757812 L 8.984375 26.234375 C 8.984375 16.707031 16.707031 8.984375 26.234375 8.984375 Z M 26.234375 8.984375 " clip-rule="nonzero"/></clipPath><clipPath id="58f842decc"><path d="M 187.5 187.5 L 335.953125 187.5 L 335.953125 335.953125 L 187.5 335.953125 Z M 187.5 187.5 " clip-rule="nonzero"/></clipPath><clipPath id="8b8b987798"><path d="M 204.75 187.5 L 318.703125 187.5 C 328.230469 187.5 335.953125 195.222656 335.953125 204.75 L 335.953125 318.703125 C 335.953125 328.230469 328.230469 335.953125 318.703125 335.953125 L 204.75 335.953125 C 195.222656 335.953125 187.5 328.230469 187.5 318.703125 L 187.5 204.75 C 187.5 195.222656 195.222656 187.5 204.75 187.5 Z M 204.75 187.5 " clip-rule="nonzero"/></clipPath><clipPath id="1fdb3462c0"><path d="M 0.5 0.5 L 148.953125 0.5 L 148.953125 148.953125 L 0.5 148.953125 Z M 0.5 0.5 " clip-rule="nonzero"/></clipPath><clipPath id="4e59d9e007"><path d="M 17.75 0.5 L 131.703125 0.5 C 141.230469 0.5 148.953125 8.222656 148.953125 17.75 L 148.953125 131.703125 C 148.953125 141.230469 141.230469 148.953125 131.703125 148.953125 L 17.75 148.953125 C 8.222656 148.953125 0.5 141.230469 0.5 131.703125 L 0.5 17.75 C 0.5 8.222656 8.222656 0.5 17.75 0.5 Z M 17.75 0.5 " clip-rule="nonzero"/></clipPath><clipPath id="ad23ac7a72"><rect x="0" width="149" y="0" height="149"/></clipPath><clipPath id="6af378dfbf"><path d="M 187.5 187.5 L 336 187.5 L 336 336 L 187.5 336 Z M 187.5 187.5 " clip-rule="nonzero"/></clipPath><clipPath id="327b793cd1"><path d="M 204.75 187.5 L 318.691406 187.5 C 328.21875 187.5 335.941406 195.222656 335.941406 204.75 L 335.941406 318.691406 C 335.941406 328.21875 328.21875 335.941406 318.691406 335.941406 L 204.75 335.941406 C 195.222656 335.941406 187.5 328.21875 187.5 318.691406 L 187.5 204.75 C 187.5 195.222656 195.222656 187.5 204.75 187.5 Z M 204.75 187.5 " clip-rule="nonzero"/></clipPath><clipPath id="db4a40de2e"><path d="M 39.046875 39.046875 L 187.5 39.046875 L 187.5 187.5 L 39.046875 187.5 Z M 39.046875 39.046875 " clip-rule="nonzero"/></clipPath><clipPath id="9c5c56f169"><path d="M 56.296875 39.046875 L 170.25 39.046875 C 179.777344 39.046875 187.5 46.769531 187.5 56.296875 L 187.5 170.25 C 187.5 179.777344 179.777344 187.5 170.25 187.5 L 56.296875 187.5 C 46.769531 187.5 39.046875 179.777344 39.046875 170.25 L 39.046875 56.296875 C 39.046875 46.769531 46.769531 39.046875 56.296875 39.046875 Z M 56.296875 39.046875 " clip-rule="nonzero"/></clipPath><clipPath id="67c12ebffb"><path d="M 0.046875 0.046875 L 148.5 0.046875 L 148.5 148.5 L 0.046875 148.5 Z M 0.046875 0.046875 " clip-rule="nonzero"/></clipPath><clipPath id="d78a6fe7e5"><path d="M 17.296875 0.046875 L 131.25 0.046875 C 140.777344 0.046875 148.5 7.769531 148.5 17.296875 L 148.5 131.25 C 148.5 140.777344 140.777344 148.5 131.25 148.5 L 17.296875 148.5 C 7.769531 148.5 0.046875 140.777344 0.046875 131.25 L 0.046875 17.296875 C 0.046875 7.769531 7.769531 0.046875 17.296875 0.046875 Z M 17.296875 0.046875 " clip-rule="nonzero"/></clipPath><clipPath id="700fc1cbc6"><rect x="0" width="149" y="0" height="149"/></clipPath><clipPath id="c1799e7aed"><path d="M 39.046875 39.046875 L 187.546875 39.046875 L 187.546875 187.546875 L 39.046875 187.546875 Z M 39.046875 39.046875 " clip-rule="nonzero"/></clipPath><clipPath id="a4ccb393a3"><path d="M 56.296875 39.046875 L 170.238281 39.046875 C 179.765625 39.046875 187.488281 46.769531 187.488281 56.296875 L 187.488281 170.238281 C 187.488281 179.765625 179.765625 187.488281 170.238281 187.488281 L 56.296875 187.488281 C 46.769531 187.488281 39.046875 179.765625 39.046875 170.238281 L 39.046875 56.296875 C 39.046875 46.769531 46.769531 39.046875 56.296875 39.046875 Z M 56.296875 39.046875 " clip-rule="nonzero"/></clipPath></defs><g clip-path="url(#613bfa85de)"><g clip-path="url(#bb1fb4d3cb)"><g transform="matrix(1, 0, 0, 1, 8, 8)"><g clip-path="url(#a1693b0646)"><g clip-path="url(#3faf61c75a)"><g clip-path="url(#0282c5b1ec)"><path fill="#000000" d="M 0.984375 0.984375 L 358.015625 0.984375 L 358.015625 358.015625 L 0.984375 358.015625 Z M 0.984375 0.984375 " fill-opacity="1" fill-rule="nonzero"/></g></g></g></g></g></g><g clip-path="url(#3ea65cadbd)"><g clip-path="url(#0dd7842e2f)"><path stroke-linecap="butt" transform="matrix(0.75, 0, 0, 0.75, 8.985538, 8.985533)" fill="none" stroke-linejoin="miter" d="M 22.998451 -0.00154423 L 453.02973 -0.00154423 C 465.732855 -0.00154423 476.029731 10.295331 476.029731 22.998457 L 476.029731 453.029736 C 476.029731 465.732861 465.732855 476.029737 453.02973 476.029737 L 22.998451 476.029737 C 10.295325 476.029737 -0.00155023 465.732861 -0.00155023 453.029736 L -0.00155023 22.998457 C -0.00155023 10.295331 10.295325 -0.00154423 22.998451 -0.00154423 Z M 22.998451 -0.00154423 " stroke="#000000" stroke-width="30" stroke-opacity="1" stroke-miterlimit="4"/></g></g><g clip-path="url(#58f842decc)"><g clip-path="url(#8b8b987798)"><g transform="matrix(1, 0, 0, 1, 187, 187)"><g clip-path="url(#ad23ac7a72)"><g clip-path="url(#1fdb3462c0)"><g clip-path="url(#4e59d9e007)"><path fill="#ffffff" d="M 0.5 0.5 L 148.953125 0.5 L 148.953125 148.953125 L 0.5 148.953125 Z M 0.5 0.5 " fill-opacity="1" fill-rule="nonzero"/></g></g></g></g></g></g><g clip-path="url(#6af378dfbf)"><g clip-path="url(#327b793cd1)"><path stroke-linecap="butt" transform="matrix(0.75, 0, 0, 0.75, 187.499992, 187.499988)" fill="none" stroke-linejoin="miter" d="M 23.000012 0.0000164167 L 174.921897 0.0000164167 C 187.625023 0.0000164167 197.921898 10.296892 197.921898 23.000018 L 197.921898 174.921903 C 197.921898 187.625029 187.625023 197.921904 174.921897 197.921904 L 23.000012 197.921904 C 10.296886 197.921904 0.0000104167 187.625029 0.0000104167 174.921903 L 0.0000104167 23.000018 C 0.0000104167 10.296892 10.296886 0.0000164167 23.000012 0.0000164167 Z M 23.000012 0.0000164167 " stroke="#ffffff" stroke-width="30" stroke-opacity="1" stroke-miterlimit="4"/></g></g><g clip-path="url(#db4a40de2e)"><g clip-path="url(#9c5c56f169)"><g transform="matrix(1, 0, 0, 1, 39, 39)"><g clip-path="url(#700fc1cbc6)"><g clip-path="url(#67c12ebffb)"><g clip-path="url(#d78a6fe7e5)"><path fill="#ffffff" d="M 0.046875 0.046875 L 148.5 0.046875 L 148.5 148.5 L 0.046875 148.5 Z M 0.046875 0.046875 " fill-opacity="1" fill-rule="nonzero"/></g></g></g></g></g></g><g clip-path="url(#c1799e7aed)"><g clip-path="url(#a4ccb393a3)"><path stroke-linecap="butt" transform="matrix(0.75, 0, 0, 0.75, 39.04695, 39.046946)" fill="none" stroke-linejoin="miter" d="M 22.999901 -0.0000943412 L 174.921786 -0.0000943412 C 187.624912 -0.0000943412 197.921788 10.296781 197.921788 22.999907 L 197.921788 174.921792 C 197.921788 187.624918 187.624912 197.921794 174.921786 197.921794 L 22.999901 197.921794 C 10.296775 197.921794 -0.000100341 187.624918 -0.000100341 174.921792 L -0.000100341 22.999907 C -0.000100341 10.296781 10.296775 -0.0000943412 22.999901 -0.0000943412 Z M 22.999901 -0.0000943412 " stroke="#ffffff" stroke-width="30" stroke-opacity="1" stroke-miterlimit="4"/></g></g></svg>