<svg xmlns="http://www.w3.org/2000/svg" xmlns:xlink="http://www.w3.org/1999/xlink" width="500" zoomAndPan="magnify" viewBox="0 0 375 374.999991" height="500" preserveAspectRatio="xMidYMid meet" version="1.0"><defs><clipPath id="9ffee5d44a"><path d="M 54.035156 53.972656 L 166.535156 53.972656 L 166.535156 166.472656 L 54.035156 166.472656 Z M 54.035156 53.972656 " clip-rule="nonzero"/></clipPath><clipPath id="dba486fcc6"><path d="M 71.285156 53.972656 L 149.285156 53.972656 C 153.859375 53.972656 158.246094 55.789062 161.480469 59.027344 C 164.714844 62.261719 166.535156 66.648438 166.535156 71.222656 L 166.535156 149.222656 C 166.535156 153.796875 164.714844 158.1875 161.480469 161.421875 C 158.246094 164.65625 153.859375 166.472656 149.285156 166.472656 L 71.285156 166.472656 C 66.707031 166.472656 62.320312 164.65625 59.085938 161.421875 C 55.851562 158.1875 54.035156 153.796875 54.035156 149.222656 L 54.035156 71.222656 C 54.035156 66.648438 55.851562 62.261719 59.085938 59.027344 C 62.320312 55.789062 66.707031 53.972656 71.285156 53.972656 Z M 71.285156 53.972656 " clip-rule="nonzero"/></clipPath><clipPath id="4a59be9ed6"><path d="M 0.0351562 0.972656 L 112.535156 0.972656 L 112.535156 113.472656 L 0.0351562 113.472656 Z M 0.0351562 0.972656 " clip-rule="nonzero"/></clipPath><clipPath id="a14d1d654f"><path d="M 17.285156 0.972656 L 95.285156 0.972656 C 99.859375 0.972656 104.246094 2.789062 107.480469 6.027344 C 110.714844 9.261719 112.535156 13.648438 112.535156 18.222656 L 112.535156 96.222656 C 112.535156 100.796875 110.714844 105.1875 107.480469 108.421875 C 104.246094 111.65625 99.859375 113.472656 95.285156 113.472656 L 17.285156 113.472656 C 12.707031 113.472656 8.320312 111.65625 5.085938 108.421875 C 1.851562 105.1875 0.0351562 100.796875 0.0351562 96.222656 L 0.0351562 18.222656 C 0.0351562 13.648438 1.851562 9.261719 5.085938 6.027344 C 8.320312 2.789062 12.707031 0.972656 17.285156 0.972656 Z M 17.285156 0.972656 " clip-rule="nonzero"/></clipPath><clipPath id="d1393a9e77"><rect x="0" width="113" y="0" height="114"/></clipPath><clipPath id="d05aca8712"><path d="M 208.464844 208.527344 L 320.964844 208.527344 L 320.964844 321.027344 L 208.464844 321.027344 Z M 208.464844 208.527344 " clip-rule="nonzero"/></clipPath><clipPath id="0e6e2ad1a2"><path d="M 225.714844 208.527344 L 303.714844 208.527344 C 308.292969 208.527344 312.679688 210.34375 315.914062 213.578125 C 319.148438 216.8125 320.964844 221.203125 320.964844 225.777344 L 320.964844 303.777344 C 320.964844 308.351562 319.148438 312.738281 315.914062 315.972656 C 312.679688 319.210938 308.292969 321.027344 303.714844 321.027344 L 225.714844 321.027344 C 221.140625 321.027344 216.753906 319.210938 213.519531 315.972656 C 210.285156 312.738281 208.464844 308.351562 208.464844 303.777344 L 208.464844 225.777344 C 208.464844 221.203125 210.285156 216.8125 213.519531 213.578125 C 216.753906 210.34375 221.140625 208.527344 225.714844 208.527344 Z M 225.714844 208.527344 " clip-rule="nonzero"/></clipPath><clipPath id="23919abe34"><path d="M 0.464844 0.527344 L 112.964844 0.527344 L 112.964844 113.027344 L 0.464844 113.027344 Z M 0.464844 0.527344 " clip-rule="nonzero"/></clipPath><clipPath id="91ee390af9"><path d="M 17.714844 0.527344 L 95.714844 0.527344 C 100.292969 0.527344 104.679688 2.34375 107.914062 5.578125 C 111.148438 8.8125 112.964844 13.203125 112.964844 17.777344 L 112.964844 95.777344 C 112.964844 100.351562 111.148438 104.738281 107.914062 107.972656 C 104.679688 111.210938 100.292969 113.027344 95.714844 113.027344 L 17.714844 113.027344 C 13.140625 113.027344 8.753906 111.210938 5.519531 107.972656 C 2.285156 104.738281 0.464844 100.351562 0.464844 95.777344 L 0.464844 17.777344 C 0.464844 13.203125 2.285156 8.8125 5.519531 5.578125 C 8.753906 2.34375 13.140625 0.527344 17.714844 0.527344 Z M 17.714844 0.527344 " clip-rule="nonzero"/></clipPath><clipPath id="57452c9ebf"><rect x="0" width="113" y="0" height="114"/></clipPath></defs><path stroke-linecap="butt" transform="matrix(0.75, 0, 0, 0.75, 104.283382, 140.944356)" fill="none" stroke-linejoin="miter" d="M 8.002367 0.00127487 L 8.002367 145.881493 C 8.002367 159.136702 18.747159 169.881494 32.002368 169.881494 L 151.564876 169.881494 " stroke="#ffffff" stroke-width="16" stroke-opacity="1" stroke-miterlimit="4"/><path stroke-linecap="round" transform="matrix(0.75, 0, 0, 0.75, 104.283382, 140.944356)" fill-opacity="1" fill="#ffffff" fill-rule="nonzero" stroke-linejoin="round" d="M 155.564876 145.881493 L 187.564878 169.881494 L 155.564876 193.881496 Z M 155.564876 145.881493 " stroke="#ffffff" stroke-width="16" stroke-opacity="1" stroke-miterlimit="4"/><g clip-path="url(#9ffee5d44a)"><g clip-path="url(#dba486fcc6)"><g transform="matrix(1, 0, 0, 1, 54, 53)"><g clip-path="url(#d1393a9e77)"><g clip-path="url(#4a59be9ed6)"><g clip-path="url(#a14d1d654f)"><path fill="#000000" d="M 0.0351562 0.972656 L 112.535156 0.972656 L 112.535156 113.472656 L 0.0351562 113.472656 Z M 0.0351562 0.972656 " fill-opacity="1" fill-rule="nonzero"/></g></g></g></g><path stroke-linecap="butt" transform="matrix(0.75, 0, 0, 0.75, 54.033385, 53.973292)" fill="none" stroke-linejoin="miter" d="M 23.002363 -0.000847208 L 127.00237 -0.000847208 C 133.101329 -0.000847208 138.950288 2.421028 143.262788 6.738737 C 147.575288 11.051237 150.002372 16.900196 150.002372 22.999154 L 150.002372 126.999161 C 150.002372 133.09812 147.575288 138.952287 143.262788 143.264787 C 138.950288 147.577287 133.101329 149.999163 127.00237 149.999163 L 23.002363 149.999163 C 16.898196 149.999163 11.049237 147.577287 6.736737 143.264787 C 2.424237 138.952287 0.00236173 133.09812 0.00236173 126.999161 L 0.00236173 22.999154 C 0.00236173 16.900196 2.424237 11.051237 6.736737 6.738737 C 11.049237 2.421028 16.898196 -0.000847208 23.002363 -0.000847208 Z M 23.002363 -0.000847208 " stroke="#ffffff" stroke-width="20" stroke-opacity="1" stroke-miterlimit="4"/></g></g><g clip-path="url(#d05aca8712)"><g clip-path="url(#0e6e2ad1a2)"><g transform="matrix(1, 0, 0, 1, 208, 208)"><g clip-path="url(#57452c9ebf)"><g clip-path="url(#23919abe34)"><g clip-path="url(#91ee390af9)"><path fill="#000000" d="M 0.464844 0.527344 L 112.964844 0.527344 L 112.964844 113.027344 L 0.464844 113.027344 Z M 0.464844 0.527344 " fill-opacity="1" fill-rule="nonzero"/></g></g></g></g><path stroke-linecap="butt" transform="matrix(0.75, 0, 0, 0.75, 208.466592, 208.526691)" fill="none" stroke-linejoin="miter" d="M 22.99767 0.000870191 L 126.997677 0.000870191 C 133.101844 0.000870191 138.950803 2.422745 143.263303 6.735246 C 147.575803 11.047746 149.997678 16.901913 149.997678 23.000872 L 149.997678 127.000879 C 149.997678 133.099837 147.575803 138.948796 143.263303 143.261296 C 138.950803 147.579005 133.101844 150.00088 126.997677 150.00088 L 22.99767 150.00088 C 16.898711 150.00088 11.049753 147.579005 6.737252 143.261296 C 2.424752 138.948796 -0.00233155 133.099837 -0.00233155 127.000879 L -0.00233155 23.000872 C -0.00233155 16.901913 2.424752 11.047746 6.737252 6.735246 C 11.049753 2.422745 16.898711 0.000870191 22.99767 0.000870191 Z M 22.99767 0.000870191 " stroke="#ffffff" stroke-width="20" stroke-opacity="1" stroke-miterlimit="4"/></g></g></svg>